<svg width="88" height="33" viewBox="0 0 88 33" fill="none" xmlns="http://www.w3.org/2000/svg">
<line y1="28" x2="32.5407" y2="28" stroke="white" stroke-width="2"/>
<path d="M16.1 8.7C16.1 8.79333 16.0734 8.88 16.02 8.96C15.9667 9.04 15.8867 9.08 15.78 9.08C15.6067 9.08 15.4334 9.07333 15.26 9.06C15.1 9.04667 14.9267 9.04 14.74 9.04C14.6067 9.04 14.52 9.1 14.48 9.22C14.44 9.34 14.42 9.45333 14.42 9.56C14.42 10.4133 14.4134 11.2667 14.4 12.12C14.4 12.96 14.4 13.8133 14.4 14.68C14.4 15.8933 14.4 17.1067 14.4 18.32C14.4134 19.52 14.42 20.7267 14.42 21.94C14.42 22.0467 14.44 22.16 14.48 22.28C14.52 22.4 14.6067 22.46 14.74 22.46C14.9267 22.46 15.1 22.4533 15.26 22.44C15.4334 22.4267 15.6067 22.42 15.78 22.42C15.8867 22.42 15.96 22.4667 16 22.56C16.04 22.6533 16.06 22.7467 16.06 22.84C16.06 23.04 15.9534 23.14 15.74 23.14C15.6334 23.14 15.5267 23.1333 15.42 23.12C15.3134 23.1067 15.2067 23.1 15.1 23.1C14.9 23.0733 14.7 23.06 14.5 23.06C14.3 23.06 14.1 23.06 13.9 23.06C13.4334 23.06 12.9667 23.06 12.5 23.06C12.0467 23.06 11.5867 23.0733 11.12 23.1C10.9867 23.1 10.8467 23.1067 10.7 23.12C10.5667 23.1333 10.4267 23.14 10.28 23.14C10.1467 23.14 10.0534 23.1 10 23.02C9.96003 22.94 9.94003 22.8467 9.94003 22.74C9.94003 22.6333 9.98003 22.5533 10.06 22.5C10.14 22.4467 10.2267 22.42 10.32 22.42C10.4667 22.42 10.6 22.4267 10.72 22.44C10.8534 22.4533 10.9867 22.46 11.12 22.46C11.32 22.46 11.4534 22.4267 11.52 22.36C11.6 22.28 11.64 22.14 11.64 21.94V15.72H5.06003V21.98C5.06003 22.18 5.10003 22.32 5.18003 22.4C5.26003 22.4667 5.39336 22.5 5.58003 22.5C5.71336 22.5 5.8467 22.4933 5.98003 22.48C6.11336 22.4667 6.2467 22.46 6.38003 22.46C6.4867 22.46 6.58003 22.4867 6.66003 22.54C6.74003 22.58 6.78003 22.66 6.78003 22.78C6.78003 23.0333 6.66003 23.16 6.42003 23.16C5.9267 23.16 5.43336 23.14 4.94003 23.1C4.46003 23.0733 3.98003 23.06 3.50003 23.06C3.26003 23.06 3.01336 23.06 2.76003 23.06C2.52003 23.06 2.28003 23.0667 2.04003 23.08C1.8667 23.0933 1.69336 23.1067 1.52003 23.12C1.36003 23.1467 1.19336 23.16 1.02003 23.16C0.926697 23.16 0.853364 23.1133 0.800031 23.02C0.760031 22.94 0.740031 22.8667 0.740031 22.8C0.740031 22.7333 0.766697 22.66 0.820031 22.58C0.873364 22.5 0.940031 22.46 1.02003 22.46C1.19336 22.46 1.36003 22.4667 1.52003 22.48C1.69336 22.4933 1.8667 22.5 2.04003 22.5C2.1867 22.5 2.28003 22.44 2.32003 22.32C2.36003 22.2 2.38003 22.0867 2.38003 21.98C2.38003 20.66 2.38003 19.34 2.38003 18.02C2.38003 16.7 2.38003 15.38 2.38003 14.06C2.38003 13.3133 2.38003 12.5667 2.38003 11.82C2.38003 11.06 2.38003 10.3133 2.38003 9.58C2.38003 9.47333 2.36003 9.36 2.32003 9.24C2.28003 9.12 2.1867 9.06 2.04003 9.06C1.8667 9.06 1.69336 9.06667 1.52003 9.08C1.36003 9.09333 1.19336 9.1 1.02003 9.1C0.806697 9.1 0.700031 8.98 0.700031 8.74C0.700031 8.64667 0.726697 8.56 0.780031 8.48C0.833364 8.4 0.913364 8.36 1.02003 8.36C1.3667 8.36 1.7067 8.37333 2.04003 8.4C2.3867 8.42667 2.73336 8.44 3.08003 8.44C3.6267 8.44 4.17336 8.42667 4.72003 8.4C5.28003 8.37333 5.83336 8.36 6.38003 8.36C6.63336 8.36 6.76003 8.48667 6.76003 8.74C6.76003 8.91333 6.6867 9.01333 6.54003 9.04C6.4067 9.06667 6.28003 9.08 6.16003 9.08C6.0667 9.08 5.97336 9.08 5.88003 9.08C5.7867 9.06667 5.6867 9.06 5.58003 9.06C5.4067 9.06 5.27336 9.11333 5.18003 9.22C5.10003 9.32667 5.06003 9.46667 5.06003 9.64V15.06H11.64V9.56C11.64 9.36 11.6 9.22667 11.52 9.16C11.4534 9.08 11.32 9.04 11.12 9.04C10.9867 9.04 10.8534 9.04667 10.72 9.06C10.6 9.07333 10.4667 9.08 10.32 9.08C10.24 9.08 10.1534 9.04667 10.06 8.98C9.98003 8.91333 9.94003 8.83333 9.94003 8.74C9.94003 8.48667 10.0667 8.36 10.32 8.36C10.48 8.36 10.64 8.36667 10.8 8.38C10.96 8.39333 11.12 8.40667 11.28 8.42C11.5867 8.43333 11.8934 8.44667 12.2 8.46C12.5067 8.46 12.8134 8.46 13.12 8.46C13.56 8.46 14 8.44667 14.44 8.42C14.8934 8.38 15.34 8.36 15.78 8.36C15.8867 8.36 15.9667 8.39333 16.02 8.46C16.0734 8.52667 16.1 8.60667 16.1 8.7ZM25.5183 17.74C25.5183 17.3 25.485 16.8 25.4183 16.24C25.365 15.6667 25.245 15.1133 25.0583 14.58C24.8716 14.0467 24.5983 13.6067 24.2383 13.26C23.8916 12.9 23.4183 12.72 22.8183 12.72C22.2716 12.72 21.8316 12.8933 21.4983 13.24C21.165 13.5867 20.905 14.02 20.7183 14.54C20.545 15.06 20.425 15.6 20.3583 16.16C20.2916 16.7067 20.2583 17.18 20.2583 17.58C20.2583 18.02 20.285 18.5267 20.3383 19.1C20.405 19.66 20.5316 20.2067 20.7183 20.74C20.905 21.2733 21.1783 21.7133 21.5383 22.06C21.8983 22.4067 22.3783 22.58 22.9783 22.58C23.5383 22.58 23.985 22.4133 24.3183 22.08C24.665 21.7333 24.925 21.3067 25.0983 20.8C25.2716 20.28 25.385 19.7467 25.4383 19.2C25.4916 18.64 25.5183 18.1533 25.5183 17.74ZM28.2383 17.84C28.2383 18.8667 28.005 19.78 27.5383 20.58C27.0716 21.3667 26.4316 21.9867 25.6183 22.44C24.8183 22.8933 23.905 23.12 22.8783 23.12C21.8516 23.12 20.945 22.88 20.1583 22.4C19.3716 21.92 18.7516 21.2733 18.2983 20.46C17.8583 19.6467 17.6383 18.7333 17.6383 17.72C17.6383 16.6667 17.8583 15.7267 18.2983 14.9C18.7383 14.06 19.3583 13.4 20.1583 12.92C20.9583 12.4267 21.8916 12.18 22.9583 12.18C24.1316 12.18 25.105 12.42 25.8783 12.9C26.665 13.3667 27.2516 14.0267 27.6383 14.88C28.0383 15.72 28.2383 16.7067 28.2383 17.84ZM35.5207 22.74C35.5207 22.9533 35.414 23.06 35.2007 23.06C34.7873 23.06 34.3807 23.04 33.9807 23C33.5807 22.9733 33.174 22.96 32.7607 22.96C32.334 22.96 31.9007 22.9733 31.4607 23C31.034 23.04 30.6073 23.06 30.1807 23.06C30.0873 23.06 30.0207 23.0267 29.9807 22.96C29.9407 22.88 29.9207 22.8 29.9207 22.72C29.9207 22.5733 29.9873 22.48 30.1207 22.44C30.2673 22.4 30.4273 22.3867 30.6007 22.4C30.7873 22.4133 30.9273 22.42 31.0207 22.42C31.314 22.42 31.4607 22.26 31.4607 21.94V20.32C31.4607 18.56 31.4607 16.8067 31.4607 15.06C31.4607 13.3 31.4607 11.54 31.4607 9.78C31.4607 9.63333 31.4473 9.45333 31.4207 9.24C31.394 9.01333 31.2673 8.9 31.0407 8.9C30.8807 8.9 30.7207 8.92667 30.5607 8.98C30.414 9.02 30.2607 9.04 30.1007 9.04C29.9007 9.04 29.8007 8.93333 29.8007 8.72C29.8007 8.57333 29.8873 8.46667 30.0607 8.4C30.234 8.34667 30.414 8.30667 30.6007 8.28C30.8007 8.25333 30.9873 8.22 31.1607 8.18C31.5607 8.08667 31.954 7.99333 32.3407 7.9C32.7407 7.79333 33.134 7.69333 33.5207 7.6C33.5607 7.58667 33.6007 7.58 33.6407 7.58C33.6807 7.56667 33.7207 7.56 33.7607 7.56C33.8407 7.56 33.914 7.58 33.9807 7.62C34.0607 7.64667 34.1007 7.71333 34.1007 7.82C34.1007 10.1667 34.094 12.52 34.0807 14.88C34.0673 17.24 34.0607 19.5933 34.0607 21.94C34.0607 22.1667 34.1273 22.3133 34.2607 22.38C34.394 22.4467 34.554 22.4733 34.7407 22.46C34.9273 22.4333 35.094 22.42 35.2407 22.42C35.4273 22.42 35.5207 22.5267 35.5207 22.74ZM42.3347 22.76C42.3347 22.9733 42.2281 23.08 42.0147 23.08C41.6281 23.08 41.2347 23.06 40.8347 23.02C40.4347 22.9933 40.0347 22.98 39.6347 22.98C39.2347 22.98 38.8281 22.9933 38.4147 23.02C38.0147 23.06 37.6147 23.08 37.2147 23.08C37.1214 23.08 37.0547 23.0467 37.0147 22.98C36.9747 22.9 36.9547 22.8267 36.9547 22.76C36.9547 22.5467 37.0547 22.44 37.2547 22.44C37.3881 22.44 37.5147 22.4467 37.6347 22.46C37.7547 22.4733 37.8747 22.48 37.9947 22.48C38.1547 22.48 38.2547 22.4267 38.2947 22.32C38.3481 22.2133 38.3747 22.0933 38.3747 21.96V14.02C38.3747 13.8867 38.3614 13.74 38.3347 13.58C38.3081 13.4067 38.2014 13.32 38.0147 13.32C37.8414 13.32 37.6614 13.3333 37.4747 13.36C37.2881 13.3867 37.1014 13.4 36.9147 13.4C36.8347 13.4 36.7547 13.38 36.6747 13.34C36.6081 13.3 36.5747 13.2333 36.5747 13.14C36.5747 12.9667 36.6614 12.8533 36.8347 12.8C36.9814 12.7733 37.1347 12.7533 37.2947 12.74C37.4681 12.7133 37.6281 12.6933 37.7747 12.68C38.2414 12.6133 38.6947 12.5333 39.1347 12.44C39.5881 12.3333 40.0414 12.2267 40.4947 12.12C40.5347 12.12 40.5747 12.12 40.6147 12.12C40.6547 12.1067 40.6881 12.1 40.7147 12.1C40.9147 12.1 41.0147 12.18 41.0147 12.34C41.0147 13.94 41.0081 15.5467 40.9947 17.16C40.9814 18.76 40.9747 20.36 40.9747 21.96C40.9747 22.2 41.0281 22.3533 41.1347 22.42C41.2414 22.4733 41.3747 22.4933 41.5347 22.48C41.7081 22.4667 41.8814 22.46 42.0547 22.46C42.2414 22.46 42.3347 22.56 42.3347 22.76ZM41.0747 9.02C41.0747 9.43333 40.9214 9.79333 40.6147 10.1C40.3214 10.4067 39.9614 10.56 39.5347 10.56C39.1214 10.56 38.7614 10.4067 38.4547 10.1C38.1481 9.79333 37.9947 9.43333 37.9947 9.02C37.9947 8.59333 38.1481 8.23333 38.4547 7.94C38.7614 7.63333 39.1214 7.48 39.5347 7.48C39.9614 7.48 40.3214 7.63333 40.6147 7.94C40.9214 8.23333 41.0747 8.59333 41.0747 9.02ZM50.7897 15.4C50.7897 15.0533 50.7297 14.6933 50.6097 14.32C50.5031 13.9333 50.3231 13.6067 50.0697 13.34C49.8297 13.0733 49.4964 12.94 49.0697 12.94C48.8564 12.94 48.6497 12.9667 48.4497 13.02C48.2497 13.0733 48.0564 13.1733 47.8697 13.32C47.4964 13.6133 47.1964 14.0267 46.9697 14.56C46.7564 15.0933 46.6031 15.66 46.5097 16.26C46.4297 16.8467 46.3897 17.3667 46.3897 17.82C46.3897 18.1933 46.4097 18.6333 46.4497 19.14C46.5031 19.6333 46.6031 20.12 46.7497 20.6C46.8964 21.08 47.1164 21.48 47.4097 21.8C47.7031 22.1067 48.1031 22.26 48.6097 22.26C48.9164 22.26 49.2164 22.1533 49.5097 21.94C49.8031 21.7133 50.0631 21.4467 50.2897 21.14C50.5297 20.8333 50.6964 20.5467 50.7897 20.28V15.4ZM54.9897 22.16C54.9897 22.28 54.8964 22.4 54.7097 22.52C54.5364 22.6267 54.3231 22.72 54.0697 22.8C53.8164 22.88 53.5697 22.9467 53.3297 23C53.0897 23.04 52.9164 23.06 52.8097 23.06C52.3297 23.06 51.9364 22.9133 51.6297 22.62C51.3231 22.3267 51.0831 21.9733 50.9097 21.56C50.6431 21.9333 50.2831 22.2667 49.8297 22.56C49.3897 22.8533 48.9364 23 48.4697 23C48.0564 23 47.6164 22.96 47.1497 22.88C46.6964 22.8 46.2897 22.64 45.9297 22.4C45.1964 21.9067 44.6497 21.2533 44.2897 20.44C43.9297 19.6133 43.7497 18.7733 43.7497 17.92C43.7497 16.8133 43.9497 15.8467 44.3497 15.02C44.7631 14.18 45.3631 13.5267 46.1497 13.06C46.9364 12.5933 47.8964 12.36 49.0297 12.36C49.3097 12.36 49.6031 12.42 49.9097 12.54C50.2297 12.6467 50.5097 12.7667 50.7497 12.9V9.44C50.7497 9.29333 50.7297 9.12667 50.6897 8.94C50.6631 8.74 50.5497 8.64 50.3497 8.64C50.1497 8.64 49.9497 8.64667 49.7497 8.66C49.5631 8.67333 49.3764 8.68 49.1897 8.68C49.0031 8.68 48.9097 8.6 48.9097 8.44C48.9097 8.28 48.9831 8.19333 49.1297 8.18C49.2364 8.15333 49.3431 8.14 49.4497 8.14C49.5564 8.14 49.6564 8.13333 49.7497 8.12C50.0031 8.09333 50.2497 8.06 50.4897 8.02C50.7297 7.98 50.9697 7.94 51.2097 7.9C51.4631 7.84667 51.7097 7.79333 51.9497 7.74C52.1897 7.68667 52.4297 7.62667 52.6697 7.56C52.7364 7.53333 52.7964 7.51333 52.8497 7.5C52.9031 7.48667 52.9564 7.48 53.0097 7.48C53.2097 7.48 53.3097 7.58667 53.3097 7.8V20.82C53.3097 20.98 53.3164 21.1667 53.3297 21.38C53.3564 21.58 53.4164 21.76 53.5097 21.92C53.6164 22.0667 53.7764 22.14 53.9897 22.14C54.1364 22.14 54.2831 22.1067 54.4297 22.04C54.5897 21.9733 54.7164 21.94 54.8097 21.94C54.8764 21.94 54.9231 21.9667 54.9497 22.02C54.9764 22.06 54.9897 22.1067 54.9897 22.16ZM61.7386 20.88C61.6986 20.2533 61.672 19.6267 61.6586 19C61.6453 18.36 61.6453 17.72 61.6586 17.08C61.112 17.1733 60.5786 17.3467 60.0586 17.6C59.552 17.84 59.132 18.1667 58.7986 18.58C58.4653 18.9933 58.2986 19.52 58.2986 20.16C58.2986 20.4267 58.332 20.7133 58.3986 21.02C58.4786 21.3267 58.612 21.5867 58.7986 21.8C58.9986 22 59.2653 22.1 59.5986 22.1C59.8386 22.1 60.092 22.0333 60.3586 21.9C60.6253 21.7533 60.8786 21.5867 61.1186 21.4C61.372 21.2133 61.5786 21.04 61.7386 20.88ZM65.8586 22.06C65.8586 22.1133 65.832 22.1733 65.7786 22.24C65.7386 22.3067 65.6986 22.36 65.6586 22.4C65.2453 22.88 64.712 23.12 64.0586 23.12C63.4853 23.12 63.0253 22.9933 62.6786 22.74C62.332 22.4867 62.0653 22.0933 61.8786 21.56C61.452 22.0133 60.992 22.3733 60.4986 22.64C60.0186 22.9067 59.452 23.04 58.7986 23.04C58.332 23.04 57.8586 22.94 57.3786 22.74C56.912 22.5267 56.5186 22.2267 56.1986 21.84C55.892 21.4533 55.7386 21.0067 55.7386 20.5C55.7386 19.9933 55.8653 19.5467 56.1186 19.16C56.3853 18.76 56.7186 18.42 57.1186 18.14C57.5186 17.8467 57.9253 17.6067 58.3386 17.42C58.872 17.1933 59.4186 17.02 59.9786 16.9C60.5386 16.7667 61.0986 16.6333 61.6586 16.5V16.42C61.6586 16.18 61.652 15.86 61.6386 15.46C61.6386 15.0467 61.5986 14.64 61.5186 14.24C61.4386 13.8267 61.3053 13.48 61.1186 13.2C60.932 12.9067 60.6586 12.76 60.2986 12.76C59.8853 12.76 59.512 12.88 59.1786 13.12C58.8586 13.36 58.632 13.68 58.4986 14.08C58.472 14.2 58.452 14.32 58.4386 14.44C58.4253 14.5467 58.4053 14.66 58.3786 14.78C58.352 14.9933 58.2253 15.14 57.9986 15.22C57.7853 15.2867 57.5853 15.32 57.3986 15.32C57.172 15.32 56.952 15.2733 56.7386 15.18C56.5253 15.0733 56.4186 14.88 56.4186 14.6C56.4186 14.4933 56.432 14.4 56.4586 14.32C56.4986 14.2267 56.5386 14.1333 56.5786 14.04C56.792 13.5333 57.112 13.16 57.5386 12.92C57.9653 12.68 58.432 12.52 58.9386 12.44C59.4586 12.36 59.952 12.32 60.4186 12.32C61.512 12.32 62.412 12.6133 63.1186 13.2C63.8253 13.7867 64.1786 14.6533 64.1786 15.8V18.82C64.1653 19.1933 64.1586 19.58 64.1586 19.98C64.172 20.3667 64.192 20.7533 64.2186 21.14C64.2453 21.3667 64.2986 21.5867 64.3786 21.8C64.4586 22 64.6386 22.1 64.9186 22.1C65.1053 22.1 65.2586 22.06 65.3786 21.98C65.512 21.9 65.632 21.86 65.7386 21.86C65.792 21.86 65.8253 21.8867 65.8386 21.94C65.852 21.9933 65.8586 22.0333 65.8586 22.06ZM75.4775 19.58C75.4775 19.8467 75.4442 20.12 75.3775 20.4C75.3242 20.68 75.2842 20.9533 75.2575 21.22C75.2442 21.4333 75.2242 21.6867 75.1975 21.98C75.1709 22.2733 75.1375 22.52 75.0975 22.72C75.0842 22.88 74.9975 22.96 74.8375 22.96C74.0109 22.96 73.1775 22.9533 72.3375 22.94C71.5109 22.9267 70.6842 22.92 69.8575 22.92C69.2842 22.92 68.7042 22.9333 68.1175 22.96C67.5309 22.9733 66.9442 22.98 66.3575 22.98C66.2642 22.98 66.1842 22.9467 66.1175 22.88C66.0509 22.8133 66.0175 22.7333 66.0175 22.64C66.0175 22.6 66.0709 22.5067 66.1775 22.36C66.2842 22.2 66.4109 22.0267 66.5575 21.84C66.7042 21.6533 66.8375 21.48 66.9575 21.32C67.0909 21.16 67.1775 21.0467 67.2175 20.98C67.4709 20.5933 67.7309 20.2133 67.9975 19.84C68.2775 19.4667 68.5442 19.0867 68.7975 18.7C69.3175 17.9 69.8309 17.0867 70.3375 16.26C70.8575 15.4333 71.3442 14.6 71.7975 13.76C71.8509 13.68 71.8975 13.6 71.9375 13.52C71.9775 13.4267 71.9975 13.3333 71.9975 13.24C71.9975 13.0533 71.8909 12.9467 71.6775 12.92C71.5442 12.8933 71.3975 12.88 71.2375 12.88C71.0775 12.88 70.9242 12.88 70.7775 12.88C70.5109 12.88 70.2309 12.8867 69.9375 12.9C69.6442 12.9133 69.3642 12.94 69.0975 12.98C68.7242 13.0333 68.4375 13.1533 68.2375 13.34C68.0375 13.5133 67.8575 13.76 67.6975 14.08C67.6175 14.2533 67.5442 14.4333 67.4775 14.62C67.4242 14.7933 67.3642 14.9733 67.2975 15.16C67.2709 15.2533 67.2309 15.34 67.1775 15.42C67.1375 15.5 67.0642 15.54 66.9575 15.54C66.7575 15.54 66.6575 15.42 66.6575 15.18V15.12C66.6709 14.8133 66.6842 14.5133 66.6975 14.22C66.7242 13.9133 66.7442 13.6133 66.7575 13.32C66.7709 13.1733 66.7775 13.0267 66.7775 12.88C66.7909 12.7333 66.8042 12.5933 66.8175 12.46C66.8309 12.3267 66.9042 12.26 67.0375 12.26C67.1309 12.26 67.2242 12.28 67.3175 12.32C67.4109 12.3467 67.5042 12.36 67.5975 12.36C68.0775 12.36 68.5642 12.3667 69.0575 12.38C69.5642 12.38 70.0509 12.38 70.5175 12.38C71.0642 12.38 71.6109 12.38 72.1575 12.38C72.7042 12.3667 73.2509 12.3533 73.7975 12.34C74.0242 12.3267 74.2509 12.3133 74.4775 12.3C74.7175 12.2867 74.9509 12.28 75.1775 12.28C75.3109 12.28 75.3775 12.3667 75.3775 12.54C75.3775 12.6333 75.3509 12.7133 75.2975 12.78C75.0975 13.1 74.8842 13.42 74.6575 13.74C74.4309 14.06 74.2042 14.38 73.9775 14.7C73.5775 15.2733 73.1709 15.8533 72.7575 16.44C72.3442 17.0267 71.9509 17.62 71.5775 18.22C71.4842 18.3667 71.3242 18.6133 71.0975 18.96C70.8709 19.2933 70.6242 19.66 70.3575 20.06C70.1042 20.46 69.8842 20.8267 69.6975 21.16C69.5109 21.48 69.4175 21.7 69.4175 21.82C69.4175 22.0733 69.4642 22.2267 69.5575 22.28C69.6509 22.3333 69.8109 22.36 70.0375 22.36H70.7575C71.2375 22.3733 71.7575 22.34 72.3175 22.26C72.8775 22.18 73.3442 21.9667 73.7175 21.62C73.9842 21.3533 74.2175 21.0467 74.4175 20.7C74.6175 20.3533 74.7709 20.0133 74.8775 19.68C74.9042 19.6133 74.9309 19.5467 74.9575 19.48C74.9975 19.4 75.0575 19.36 75.1375 19.36C75.2042 19.36 75.2775 19.3733 75.3575 19.4C75.4375 19.4267 75.4775 19.4867 75.4775 19.58ZM83.1069 15.98C83.1069 15.7133 83.0936 15.3933 83.0669 15.02C83.0402 14.6467 82.9736 14.2867 82.8669 13.94C82.7736 13.58 82.6202 13.28 82.4069 13.04C82.1936 12.8 81.9002 12.68 81.5269 12.68C81.1669 12.68 80.8469 12.8 80.5669 13.04C80.3002 13.2667 80.0736 13.56 79.8869 13.92C79.7002 14.2667 79.5536 14.6333 79.4469 15.02C79.3402 15.3933 79.2602 15.7267 79.2069 16.02C79.4336 16.02 79.6536 16.0267 79.8669 16.04C80.0936 16.04 80.3136 16.04 80.5269 16.04C81.3936 16.04 82.2536 16.02 83.1069 15.98ZM85.9869 20.4C85.9869 20.44 85.9736 20.5 85.9469 20.58C85.9336 20.6467 85.9136 20.7 85.8869 20.74C85.7936 20.9533 85.6202 21.2 85.3669 21.48C85.1136 21.7467 84.8869 21.9533 84.6869 22.1C83.7936 22.78 82.7602 23.12 81.5869 23.12C80.5336 23.12 79.6202 22.9 78.8469 22.46C78.0736 22.0067 77.4802 21.38 77.0669 20.58C76.6536 19.78 76.4469 18.86 76.4469 17.82C76.4469 16.78 76.6469 15.84 77.0469 15C77.4602 14.1467 78.0469 13.4733 78.8069 12.98C79.5802 12.4733 80.5069 12.22 81.5869 12.22C82.8269 12.22 83.8202 12.56 84.5669 13.24C85.3136 13.92 85.6869 14.8933 85.6869 16.16C85.6869 16.5067 85.5269 16.68 85.2069 16.68C84.6202 16.68 84.0336 16.6733 83.4469 16.66C82.8602 16.6467 82.2736 16.64 81.6869 16.64C81.2602 16.64 80.8336 16.64 80.4069 16.64C79.9802 16.64 79.5536 16.6467 79.1269 16.66C79.0869 17.06 79.0669 17.4667 79.0669 17.88C79.0669 18.2533 79.1136 18.6933 79.2069 19.2C79.3136 19.7067 79.4669 20.2 79.6669 20.68C79.8802 21.16 80.1536 21.56 80.4869 21.88C80.8202 22.1867 81.2269 22.34 81.7069 22.34C82.3069 22.34 82.8069 22.2533 83.2069 22.08C83.6202 21.9067 83.9869 21.66 84.3069 21.34C84.6269 21.02 84.9536 20.64 85.2869 20.2C85.3269 20.1467 85.3669 20.1067 85.4069 20.08C85.4602 20.04 85.5202 20.02 85.5869 20.02C85.6802 20.02 85.7669 20.06 85.8469 20.14C85.9402 20.2067 85.9869 20.2933 85.9869 20.4Z" fill="white"/>
</svg>
